<svg width="230" height="48" viewBox="0 0 230 48" fill="none" xmlns="http://www.w3.org/2000/svg">
<mask id="path-1-outside-1_5136_164" maskUnits="userSpaceOnUse" x="1" y="0" width="48" height="48" fill="black">
<rect fill="white" x="1" width="48" height="48"/>
<path d="M4.875 19.1822H6.94855C7.03864 19.6821 7.08797 20.203 7.08797 20.74C7.08797 21.6365 6.95381 22.4899 6.7118 23.2698L4.875 19.1822ZM17.4182 40.7832C16.7448 40.3145 15.9655 39.9252 15.1033 39.6472C14.5884 39.4812 14.0721 39.3666 13.5638 39.2983L12.9232 41.25L17.4182 40.7832ZM37.546 36.1363C36.8877 36.6265 36.2715 37.2385 35.7395 37.9644C35.4205 38.3986 35.1502 38.8491 34.9273 39.3067L36.6056 40.5137L37.546 36.1363ZM39.2947 15.7383C39.561 16.5104 39.9602 17.2786 40.4923 18.0039C40.8106 18.4381 41.1611 18.8313 41.53 19.1828L43.2083 17.9765L39.2947 15.7383ZM20.2461 7.82536C21.0694 7.81234 21.9316 7.67498 22.7918 7.39765C23.3081 7.23229 23.7934 7.02527 24.2452 6.7857L23.6047 4.83333L20.2461 7.82536Z"/>
<path d="M22.5572 9.57989C22.5558 9.60421 22.5558 9.62918 22.5532 9.65415C22.4698 10.5853 21.7817 11.3417 20.8847 11.5303L20.8604 11.5342H12.5575L12.3965 11.9982H21.8317C21.8317 12.0015 21.8317 12.0041 21.8317 12.0067C21.7653 12.9852 21.0359 13.7803 20.087 13.9446C20.0686 13.9479 20.0502 13.9505 20.0318 13.9538H11.7177L11.5653 14.3928H20.9537C20.9537 14.3954 20.9537 14.398 20.9537 14.4007C20.8907 15.3851 20.156 16.1848 19.2018 16.3465L19.2005 16.3478H10.8845L10.6906 16.905L20.0778 16.9077C20.0771 16.9385 20.0752 16.9694 20.0719 16.999C19.9897 18.0958 19.1512 18.9809 18.0748 19.1327L18.0716 19.136H4.85394L6.68932 23.2615C6.68866 23.2648 6.68734 23.2688 6.68668 23.2721L6.12023 24.8591L6.04138 24.771L3.62772 22.0669C3.62575 22.0636 3.62312 22.061 3.62049 22.057C3.49498 21.8954 3.37538 21.7291 3.26301 21.5576C2.46394 20.3386 2 18.8857 2 17.3256C2 16.1684 2.2576 15.071 2.71496 14.0826C3.74601 11.8608 5.80153 10.1969 8.28747 9.68175C8.28747 9.68175 8.46161 9.64429 8.66138 9.61144C8.84275 9.58055 9.01097 9.58055 9.01097 9.58055L22.5572 9.57989ZM5.09248 34.5019V34.5032C5.09248 34.5032 5.04056 34.6629 5.01296 34.8456C4.98339 35.0473 4.96499 35.2241 4.96499 35.2241C4.68703 37.7462 5.63461 40.2171 7.42925 41.8829C8.22701 42.6248 9.19168 43.209 10.2917 43.5665C11.7749 44.0482 13.3001 44.0561 14.707 43.673C14.9048 43.6191 15.1 43.5567 15.2932 43.4877C15.2965 43.4863 15.3011 43.485 15.305 43.4837L18.6222 42.0216L18.7307 41.9749L18.249 41.6036L17.9362 41.3638L17.396 40.9478C17.3934 40.9445 17.3894 40.9432 17.3868 40.9406L12.8966 41.4124L16.7862 29.438L16.8453 29.2593L16.9735 28.8623L16.9807 28.8407L16.9787 28.8367C17.1667 27.7669 16.5845 26.6951 15.5672 26.2778C15.5396 26.2653 15.5114 26.2555 15.4824 26.2443L12.5766 35.1709L12.1067 34.8141L14.6748 26.9126L14.6768 26.9054L14.6761 26.9041C14.8168 25.9466 14.2832 25.001 13.3665 24.6363C13.3638 24.6363 13.3619 24.635 13.3599 24.635L12.2217 28.1388L10.458 33.5642L10.0874 33.2829L12.6574 25.3736C12.6607 25.3558 12.664 25.3361 12.6666 25.3184C12.804 24.3655 12.273 23.4252 11.3629 23.0598C11.3609 23.0585 11.3583 23.0578 11.3556 23.0565L8.43926 32.0311L8.04762 31.734L10.6137 23.8379L10.6177 23.8135C10.7156 22.9021 10.2083 22.015 9.34743 21.647C9.32508 21.6371 9.30208 21.6299 9.27908 21.6207L5.09248 34.5019ZM27.575 45.9526C27.575 45.9526 27.7117 46.0512 27.8767 46.1333C28.0587 46.2246 28.2217 46.2963 28.2217 46.2963C30.5354 47.3411 33.1765 47.2031 35.3167 46.0111C36.2676 45.4801 37.1212 44.7434 37.8014 43.8077C38.7181 42.5453 39.1971 41.097 39.2661 39.6408C39.2766 39.4351 39.2773 39.2314 39.2714 39.0257C39.2714 39.0217 39.2714 39.0178 39.2714 39.0138L38.906 35.4068L38.8942 35.2885L37.5037 36.2401C37.5011 36.2427 37.4984 36.244 37.4952 36.2466L36.5541 40.6639L34.8778 39.4456L34.6268 39.2642L26.3685 33.2652L26.2167 33.1541L25.879 32.9084L25.8599 32.8946L25.8553 32.8959C24.8959 32.3866 23.6966 32.608 22.9856 33.4479C22.9659 33.4709 22.9462 33.4939 22.9284 33.5182L30.5203 39.0388L30.0354 39.3759L23.8747 34.8995L23.3135 34.4914L23.3076 34.4875H23.3063C22.4389 34.0577 21.3743 34.2719 20.7448 35.0316C20.7435 35.0342 20.7421 35.0355 20.7402 35.0381L23.7216 37.2034L24.1487 37.5156L28.3353 40.5575L27.9529 40.823L21.2265 35.9351C21.2094 35.9259 21.1929 35.9174 21.1765 35.9095C20.313 35.485 19.2544 35.6979 18.6262 36.4517C18.6242 36.4536 18.6229 36.4563 18.6216 36.4576L26.2549 42.0051L25.852 42.2857L19.8018 37.8895L19.1341 37.4065L19.1118 37.3953C18.2766 37.0201 17.2751 37.2284 16.66 37.9322C16.6443 37.9499 16.6291 37.9716 16.6134 37.9894L27.575 45.9526ZM45.4064 28.0928L45.4077 28.0922C45.4077 28.0922 45.5431 27.9936 45.6719 27.8622C45.8151 27.7156 45.9328 27.5836 45.9328 27.5836C47.6413 25.7068 48.3267 23.1511 47.8542 20.7473C47.644 19.6788 47.2076 18.6399 46.5268 17.7035C45.6095 16.4417 44.38 15.5388 43.0171 15.0223C42.8252 14.95 42.6313 14.8856 42.4348 14.8278C42.4315 14.8265 42.4269 14.8258 42.423 14.8245L38.8797 14.0563L38.7634 14.0314L38.9356 14.6156L39.046 14.9934L39.2385 15.6479C39.2398 15.6512 39.2412 15.6545 39.2425 15.6578L43.1518 17.917L32.9655 25.3164L32.8137 25.4281L32.476 25.6732L32.4576 25.687L32.4569 25.6916C31.6762 26.4467 31.5165 27.6565 32.0955 28.5909C32.1106 28.6172 32.1283 28.6422 32.1448 28.6678L39.7412 23.1518L39.9114 23.7163L33.1896 28.6015L33.1837 28.6054V28.6067C32.5075 29.2993 32.3826 30.3777 32.9103 31.211C32.9116 31.2129 32.9136 31.2156 32.9149 31.2175L40.5101 25.6982L40.6455 26.1444L33.9177 31.0316C33.9039 31.0454 33.8908 31.0579 33.8776 31.0717C33.2067 31.7623 33.0831 32.8354 33.6056 33.6654C33.6069 33.6667 33.6082 33.6693 33.6102 33.672L41.2434 28.1257L41.3861 28.5969L34.6688 33.4761L34.6517 33.4926C34.0367 34.172 33.9256 35.1886 34.4053 35.9917C34.4171 36.0127 34.4322 36.0331 34.4454 36.0547L45.4064 28.0928ZM33.9414 5.65348C33.9414 5.65348 33.8895 5.49314 33.804 5.33017C33.7094 5.14946 33.6207 4.99503 33.6207 4.99503C32.3629 2.79098 30.1451 1.34922 27.713 1.05613C26.6314 0.925362 25.509 1.01933 24.409 1.37747C22.9258 1.85916 21.6865 2.74958 20.7743 3.88578C20.6462 4.04612 20.5253 4.21106 20.4096 4.37995C20.4077 4.38389 20.405 4.38652 20.4024 4.39046L18.5177 7.6249L19.1263 7.64133L19.5199 7.65316L20.202 7.67222C20.2053 7.67222 20.2092 7.67156 20.2125 7.67156L23.5691 4.65069L27.5179 16.8032L27.6467 17.2001L27.6539 17.2218L27.6578 17.2237C28.1356 18.1996 29.2356 18.7247 30.3035 18.4644C30.333 18.4565 30.362 18.4493 30.3915 18.4408L27.4922 9.51221L28.0824 9.52535L30.6504 17.4275L30.6524 17.4347H30.6537C31.1025 18.2929 32.0902 18.7444 33.0463 18.4993C33.0483 18.4986 33.0509 18.4979 33.0542 18.4973L30.1523 9.56807L30.6176 9.57792L33.1876 17.4859C33.1968 17.5024 33.2041 17.5201 33.2133 17.5365C33.6627 18.3875 34.6452 18.837 35.5954 18.5959C35.5973 18.5952 35.6013 18.5939 35.6033 18.5939L32.6869 9.61998L33.1784 9.63049L35.7452 17.5267L35.757 17.5484C36.2131 18.3435 37.1462 18.7628 38.0577 18.5545C38.0813 18.5492 38.105 18.5413 38.1286 18.5354L33.9414 5.65348Z"/>
</mask>
<path d="M4.875 19.1822H6.94855C7.03864 19.6821 7.08797 20.203 7.08797 20.74C7.08797 21.6365 6.95381 22.4899 6.7118 23.2698L4.875 19.1822ZM17.4182 40.7832C16.7448 40.3145 15.9655 39.9252 15.1033 39.6472C14.5884 39.4812 14.0721 39.3666 13.5638 39.2983L12.9232 41.25L17.4182 40.7832ZM37.546 36.1363C36.8877 36.6265 36.2715 37.2385 35.7395 37.9644C35.4205 38.3986 35.1502 38.8491 34.9273 39.3067L36.6056 40.5137L37.546 36.1363ZM39.2947 15.7383C39.561 16.5104 39.9602 17.2786 40.4923 18.0039C40.8106 18.4381 41.1611 18.8313 41.53 19.1828L43.2083 17.9765L39.2947 15.7383ZM20.2461 7.82536C21.0694 7.81234 21.9316 7.67498 22.7918 7.39765C23.3081 7.23229 23.7934 7.02527 24.2452 6.7857L23.6047 4.83333L20.2461 7.82536Z" fill="#FFCB05"/>
<path d="M22.5572 9.57989C22.5558 9.60421 22.5558 9.62918 22.5532 9.65415C22.4698 10.5853 21.7817 11.3417 20.8847 11.5303L20.8604 11.5342H12.5575L12.3965 11.9982H21.8317C21.8317 12.0015 21.8317 12.0041 21.8317 12.0067C21.7653 12.9852 21.0359 13.7803 20.087 13.9446C20.0686 13.9479 20.0502 13.9505 20.0318 13.9538H11.7177L11.5653 14.3928H20.9537C20.9537 14.3954 20.9537 14.398 20.9537 14.4007C20.8907 15.3851 20.156 16.1848 19.2018 16.3465L19.2005 16.3478H10.8845L10.6906 16.905L20.0778 16.9077C20.0771 16.9385 20.0752 16.9694 20.0719 16.999C19.9897 18.0958 19.1512 18.9809 18.0748 19.1327L18.0716 19.136H4.85394L6.68932 23.2615C6.68866 23.2648 6.68734 23.2688 6.68668 23.2721L6.12023 24.8591L6.04138 24.771L3.62772 22.0669C3.62575 22.0636 3.62312 22.061 3.62049 22.057C3.49498 21.8954 3.37538 21.7291 3.26301 21.5576C2.46394 20.3386 2 18.8857 2 17.3256C2 16.1684 2.2576 15.071 2.71496 14.0826C3.74601 11.8608 5.80153 10.1969 8.28747 9.68175C8.28747 9.68175 8.46161 9.64429 8.66138 9.61144C8.84275 9.58055 9.01097 9.58055 9.01097 9.58055L22.5572 9.57989ZM5.09248 34.5019V34.5032C5.09248 34.5032 5.04056 34.6629 5.01296 34.8456C4.98339 35.0473 4.96499 35.2241 4.96499 35.2241C4.68703 37.7462 5.63461 40.2171 7.42925 41.8829C8.22701 42.6248 9.19168 43.209 10.2917 43.5665C11.7749 44.0482 13.3001 44.0561 14.707 43.673C14.9048 43.6191 15.1 43.5567 15.2932 43.4877C15.2965 43.4863 15.3011 43.485 15.305 43.4837L18.6222 42.0216L18.7307 41.9749L18.249 41.6036L17.9362 41.3638L17.396 40.9478C17.3934 40.9445 17.3894 40.9432 17.3868 40.9406L12.8966 41.4124L16.7862 29.438L16.8453 29.2593L16.9735 28.8623L16.9807 28.8407L16.9787 28.8367C17.1667 27.7669 16.5845 26.6951 15.5672 26.2778C15.5396 26.2653 15.5114 26.2555 15.4824 26.2443L12.5766 35.1709L12.1067 34.8141L14.6748 26.9126L14.6768 26.9054L14.6761 26.9041C14.8168 25.9466 14.2832 25.001 13.3665 24.6363C13.3638 24.6363 13.3619 24.635 13.3599 24.635L12.2217 28.1388L10.458 33.5642L10.0874 33.2829L12.6574 25.3736C12.6607 25.3558 12.664 25.3361 12.6666 25.3184C12.804 24.3655 12.273 23.4252 11.3629 23.0598C11.3609 23.0585 11.3583 23.0578 11.3556 23.0565L8.43926 32.0311L8.04762 31.734L10.6137 23.8379L10.6177 23.8135C10.7156 22.9021 10.2083 22.015 9.34743 21.647C9.32508 21.6371 9.30208 21.6299 9.27908 21.6207L5.09248 34.5019ZM27.575 45.9526C27.575 45.9526 27.7117 46.0512 27.8767 46.1333C28.0587 46.2246 28.2217 46.2963 28.2217 46.2963C30.5354 47.3411 33.1765 47.2031 35.3167 46.0111C36.2676 45.4801 37.1212 44.7434 37.8014 43.8077C38.7181 42.5453 39.1971 41.097 39.2661 39.6408C39.2766 39.4351 39.2773 39.2314 39.2714 39.0257C39.2714 39.0217 39.2714 39.0178 39.2714 39.0138L38.906 35.4068L38.8942 35.2885L37.5037 36.2401C37.5011 36.2427 37.4984 36.244 37.4952 36.2466L36.5541 40.6639L34.8778 39.4456L34.6268 39.2642L26.3685 33.2652L26.2167 33.1541L25.879 32.9084L25.8599 32.8946L25.8553 32.8959C24.8959 32.3866 23.6966 32.608 22.9856 33.4479C22.9659 33.4709 22.9462 33.4939 22.9284 33.5182L30.5203 39.0388L30.0354 39.3759L23.8747 34.8995L23.3135 34.4914L23.3076 34.4875H23.3063C22.4389 34.0577 21.3743 34.2719 20.7448 35.0316C20.7435 35.0342 20.7421 35.0355 20.7402 35.0381L23.7216 37.2034L24.1487 37.5156L28.3353 40.5575L27.9529 40.823L21.2265 35.9351C21.2094 35.9259 21.1929 35.9174 21.1765 35.9095C20.313 35.485 19.2544 35.6979 18.6262 36.4517C18.6242 36.4536 18.6229 36.4563 18.6216 36.4576L26.2549 42.0051L25.852 42.2857L19.8018 37.8895L19.1341 37.4065L19.1118 37.3953C18.2766 37.0201 17.2751 37.2284 16.66 37.9322C16.6443 37.9499 16.6291 37.9716 16.6134 37.9894L27.575 45.9526ZM45.4064 28.0928L45.4077 28.0922C45.4077 28.0922 45.5431 27.9936 45.6719 27.8622C45.8151 27.7156 45.9328 27.5836 45.9328 27.5836C47.6413 25.7068 48.3267 23.1511 47.8542 20.7473C47.644 19.6788 47.2076 18.6399 46.5268 17.7035C45.6095 16.4417 44.38 15.5388 43.0171 15.0223C42.8252 14.95 42.6313 14.8856 42.4348 14.8278C42.4315 14.8265 42.4269 14.8258 42.423 14.8245L38.8797 14.0563L38.7634 14.0314L38.9356 14.6156L39.046 14.9934L39.2385 15.6479C39.2398 15.6512 39.2412 15.6545 39.2425 15.6578L43.1518 17.917L32.9655 25.3164L32.8137 25.4281L32.476 25.6732L32.4576 25.687L32.4569 25.6916C31.6762 26.4467 31.5165 27.6565 32.0955 28.5909C32.1106 28.6172 32.1283 28.6422 32.1448 28.6678L39.7412 23.1518L39.9114 23.7163L33.1896 28.6015L33.1837 28.6054V28.6067C32.5075 29.2993 32.3826 30.3777 32.9103 31.211C32.9116 31.2129 32.9136 31.2156 32.9149 31.2175L40.5101 25.6982L40.6455 26.1444L33.9177 31.0316C33.9039 31.0454 33.8908 31.0579 33.8776 31.0717C33.2067 31.7623 33.0831 32.8354 33.6056 33.6654C33.6069 33.6667 33.6082 33.6693 33.6102 33.672L41.2434 28.1257L41.3861 28.5969L34.6688 33.4761L34.6517 33.4926C34.0367 34.172 33.9256 35.1886 34.4053 35.9917C34.4171 36.0127 34.4322 36.0331 34.4454 36.0547L45.4064 28.0928ZM33.9414 5.65348C33.9414 5.65348 33.8895 5.49314 33.804 5.33017C33.7094 5.14946 33.6207 4.99503 33.6207 4.99503C32.3629 2.79098 30.1451 1.34922 27.713 1.05613C26.6314 0.925362 25.509 1.01933 24.409 1.37747C22.9258 1.85916 21.6865 2.74958 20.7743 3.88578C20.6462 4.04612 20.5253 4.21106 20.4096 4.37995C20.4077 4.38389 20.405 4.38652 20.4024 4.39046L18.5177 7.6249L19.1263 7.64133L19.5199 7.65316L20.202 7.67222C20.2053 7.67222 20.2092 7.67156 20.2125 7.67156L23.5691 4.65069L27.5179 16.8032L27.6467 17.2001L27.6539 17.2218L27.6578 17.2237C28.1356 18.1996 29.2356 18.7247 30.3035 18.4644C30.333 18.4565 30.362 18.4493 30.3915 18.4408L27.4922 9.51221L28.0824 9.52535L30.6504 17.4275L30.6524 17.4347H30.6537C31.1025 18.2929 32.0902 18.7444 33.0463 18.4993C33.0483 18.4986 33.0509 18.4979 33.0542 18.4973L30.1523 9.56807L30.6176 9.57792L33.1876 17.4859C33.1968 17.5024 33.2041 17.5201 33.2133 17.5365C33.6627 18.3875 34.6452 18.837 35.5954 18.5959C35.5973 18.5952 35.6013 18.5939 35.6033 18.5939L32.6869 9.61998L33.1784 9.63049L35.7452 17.5267L35.757 17.5484C36.2131 18.3435 37.1462 18.7628 38.0577 18.5545C38.0813 18.5492 38.105 18.5413 38.1286 18.5354L33.9414 5.65348Z" fill="#D2232A"/>
<path d="M4.875 19.1822H6.94855C7.03864 19.6821 7.08797 20.203 7.08797 20.74C7.08797 21.6365 6.95381 22.4899 6.7118 23.2698L4.875 19.1822ZM17.4182 40.7832C16.7448 40.3145 15.9655 39.9252 15.1033 39.6472C14.5884 39.4812 14.0721 39.3666 13.5638 39.2983L12.9232 41.25L17.4182 40.7832ZM37.546 36.1363C36.8877 36.6265 36.2715 37.2385 35.7395 37.9644C35.4205 38.3986 35.1502 38.8491 34.9273 39.3067L36.6056 40.5137L37.546 36.1363ZM39.2947 15.7383C39.561 16.5104 39.9602 17.2786 40.4923 18.0039C40.8106 18.4381 41.1611 18.8313 41.53 19.1828L43.2083 17.9765L39.2947 15.7383ZM20.2461 7.82536C21.0694 7.81234 21.9316 7.67498 22.7918 7.39765C23.3081 7.23229 23.7934 7.02527 24.2452 6.7857L23.6047 4.83333L20.2461 7.82536Z" stroke="white" stroke-width="1.2" stroke-linejoin="round" mask="url(#path-1-outside-1_5136_164)"/>
<path d="M22.5572 9.57989C22.5558 9.60421 22.5558 9.62918 22.5532 9.65415C22.4698 10.5853 21.7817 11.3417 20.8847 11.5303L20.8604 11.5342H12.5575L12.3965 11.9982H21.8317C21.8317 12.0015 21.8317 12.0041 21.8317 12.0067C21.7653 12.9852 21.0359 13.7803 20.087 13.9446C20.0686 13.9479 20.0502 13.9505 20.0318 13.9538H11.7177L11.5653 14.3928H20.9537C20.9537 14.3954 20.9537 14.398 20.9537 14.4007C20.8907 15.3851 20.156 16.1848 19.2018 16.3465L19.2005 16.3478H10.8845L10.6906 16.905L20.0778 16.9077C20.0771 16.9385 20.0752 16.9694 20.0719 16.999C19.9897 18.0958 19.1512 18.9809 18.0748 19.1327L18.0716 19.136H4.85394L6.68932 23.2615C6.68866 23.2648 6.68734 23.2688 6.68668 23.2721L6.12023 24.8591L6.04138 24.771L3.62772 22.0669C3.62575 22.0636 3.62312 22.061 3.62049 22.057C3.49498 21.8954 3.37538 21.7291 3.26301 21.5576C2.46394 20.3386 2 18.8857 2 17.3256C2 16.1684 2.2576 15.071 2.71496 14.0826C3.74601 11.8608 5.80153 10.1969 8.28747 9.68175C8.28747 9.68175 8.46161 9.64429 8.66138 9.61144C8.84275 9.58055 9.01097 9.58055 9.01097 9.58055L22.5572 9.57989ZM5.09248 34.5019V34.5032C5.09248 34.5032 5.04056 34.6629 5.01296 34.8456C4.98339 35.0473 4.96499 35.2241 4.96499 35.2241C4.68703 37.7462 5.63461 40.2171 7.42925 41.8829C8.22701 42.6248 9.19168 43.209 10.2917 43.5665C11.7749 44.0482 13.3001 44.0561 14.707 43.673C14.9048 43.6191 15.1 43.5567 15.2932 43.4877C15.2965 43.4863 15.3011 43.485 15.305 43.4837L18.6222 42.0216L18.7307 41.9749L18.249 41.6036L17.9362 41.3638L17.396 40.9478C17.3934 40.9445 17.3894 40.9432 17.3868 40.9406L12.8966 41.4124L16.7862 29.438L16.8453 29.2593L16.9735 28.8623L16.9807 28.8407L16.9787 28.8367C17.1667 27.7669 16.5845 26.6951 15.5672 26.2778C15.5396 26.2653 15.5114 26.2555 15.4824 26.2443L12.5766 35.1709L12.1067 34.8141L14.6748 26.9126L14.6768 26.9054L14.6761 26.9041C14.8168 25.9466 14.2832 25.001 13.3665 24.6363C13.3638 24.6363 13.3619 24.635 13.3599 24.635L12.2217 28.1388L10.458 33.5642L10.0874 33.2829L12.6574 25.3736C12.6607 25.3558 12.664 25.3361 12.6666 25.3184C12.804 24.3655 12.273 23.4252 11.3629 23.0598C11.3609 23.0585 11.3583 23.0578 11.3556 23.0565L8.43926 32.0311L8.04762 31.734L10.6137 23.8379L10.6177 23.8135C10.7156 22.9021 10.2083 22.015 9.34743 21.647C9.32508 21.6371 9.30208 21.6299 9.27908 21.6207L5.09248 34.5019ZM27.575 45.9526C27.575 45.9526 27.7117 46.0512 27.8767 46.1333C28.0587 46.2246 28.2217 46.2963 28.2217 46.2963C30.5354 47.3411 33.1765 47.2031 35.3167 46.0111C36.2676 45.4801 37.1212 44.7434 37.8014 43.8077C38.7181 42.5453 39.1971 41.097 39.2661 39.6408C39.2766 39.4351 39.2773 39.2314 39.2714 39.0257C39.2714 39.0217 39.2714 39.0178 39.2714 39.0138L38.906 35.4068L38.8942 35.2885L37.5037 36.2401C37.5011 36.2427 37.4984 36.244 37.4952 36.2466L36.5541 40.6639L34.8778 39.4456L34.6268 39.2642L26.3685 33.2652L26.2167 33.1541L25.879 32.9084L25.8599 32.8946L25.8553 32.8959C24.8959 32.3866 23.6966 32.608 22.9856 33.4479C22.9659 33.4709 22.9462 33.4939 22.9284 33.5182L30.5203 39.0388L30.0354 39.3759L23.8747 34.8995L23.3135 34.4914L23.3076 34.4875H23.3063C22.4389 34.0577 21.3743 34.2719 20.7448 35.0316C20.7435 35.0342 20.7421 35.0355 20.7402 35.0381L23.7216 37.2034L24.1487 37.5156L28.3353 40.5575L27.9529 40.823L21.2265 35.9351C21.2094 35.9259 21.1929 35.9174 21.1765 35.9095C20.313 35.485 19.2544 35.6979 18.6262 36.4517C18.6242 36.4536 18.6229 36.4563 18.6216 36.4576L26.2549 42.0051L25.852 42.2857L19.8018 37.8895L19.1341 37.4065L19.1118 37.3953C18.2766 37.0201 17.2751 37.2284 16.66 37.9322C16.6443 37.9499 16.6291 37.9716 16.6134 37.9894L27.575 45.9526ZM45.4064 28.0928L45.4077 28.0922C45.4077 28.0922 45.5431 27.9936 45.6719 27.8622C45.8151 27.7156 45.9328 27.5836 45.9328 27.5836C47.6413 25.7068 48.3267 23.1511 47.8542 20.7473C47.644 19.6788 47.2076 18.6399 46.5268 17.7035C45.6095 16.4417 44.38 15.5388 43.0171 15.0223C42.8252 14.95 42.6313 14.8856 42.4348 14.8278C42.4315 14.8265 42.4269 14.8258 42.423 14.8245L38.8797 14.0563L38.7634 14.0314L38.9356 14.6156L39.046 14.9934L39.2385 15.6479C39.2398 15.6512 39.2412 15.6545 39.2425 15.6578L43.1518 17.917L32.9655 25.3164L32.8137 25.4281L32.476 25.6732L32.4576 25.687L32.4569 25.6916C31.6762 26.4467 31.5165 27.6565 32.0955 28.5909C32.1106 28.6172 32.1283 28.6422 32.1448 28.6678L39.7412 23.1518L39.9114 23.7163L33.1896 28.6015L33.1837 28.6054V28.6067C32.5075 29.2993 32.3826 30.3777 32.9103 31.211C32.9116 31.2129 32.9136 31.2156 32.9149 31.2175L40.5101 25.6982L40.6455 26.1444L33.9177 31.0316C33.9039 31.0454 33.8908 31.0579 33.8776 31.0717C33.2067 31.7623 33.0831 32.8354 33.6056 33.6654C33.6069 33.6667 33.6082 33.6693 33.6102 33.672L41.2434 28.1257L41.3861 28.5969L34.6688 33.4761L34.6517 33.4926C34.0367 34.172 33.9256 35.1886 34.4053 35.9917C34.4171 36.0127 34.4322 36.0331 34.4454 36.0547L45.4064 28.0928ZM33.9414 5.65348C33.9414 5.65348 33.8895 5.49314 33.804 5.33017C33.7094 5.14946 33.6207 4.99503 33.6207 4.99503C32.3629 2.79098 30.1451 1.34922 27.713 1.05613C26.6314 0.925362 25.509 1.01933 24.409 1.37747C22.9258 1.85916 21.6865 2.74958 20.7743 3.88578C20.6462 4.04612 20.5253 4.21106 20.4096 4.37995C20.4077 4.38389 20.405 4.38652 20.4024 4.39046L18.5177 7.6249L19.1263 7.64133L19.5199 7.65316L20.202 7.67222C20.2053 7.67222 20.2092 7.67156 20.2125 7.67156L23.5691 4.65069L27.5179 16.8032L27.6467 17.2001L27.6539 17.2218L27.6578 17.2237C28.1356 18.1996 29.2356 18.7247 30.3035 18.4644C30.333 18.4565 30.362 18.4493 30.3915 18.4408L27.4922 9.51221L28.0824 9.52535L30.6504 17.4275L30.6524 17.4347H30.6537C31.1025 18.2929 32.0902 18.7444 33.0463 18.4993C33.0483 18.4986 33.0509 18.4979 33.0542 18.4973L30.1523 9.56807L30.6176 9.57792L33.1876 17.4859C33.1968 17.5024 33.2041 17.5201 33.2133 17.5365C33.6627 18.3875 34.6452 18.837 35.5954 18.5959C35.5973 18.5952 35.6013 18.5939 35.6033 18.5939L32.6869 9.61998L33.1784 9.63049L35.7452 17.5267L35.757 17.5484C36.2131 18.3435 37.1462 18.7628 38.0577 18.5545C38.0813 18.5492 38.105 18.5413 38.1286 18.5354L33.9414 5.65348Z" stroke="white" stroke-width="1.2" stroke-linejoin="round" mask="url(#path-1-outside-1_5136_164)"/>
<path d="M61.0616 6.92808C61.0616 6.86475 61.0806 6.81408 61.1186 6.77608C61.1693 6.72542 61.2263 6.70008 61.2896 6.70008H63.5126C63.5759 6.70008 63.6266 6.72542 63.6646 6.77608C63.7153 6.81408 63.7406 6.86475 63.7406 6.92808V19.7721C63.7406 19.8354 63.7153 19.8924 63.6646 19.9431C63.6266 19.9811 63.5759 20.0001 63.5126 20.0001H61.2896C61.2263 20.0001 61.1693 19.9811 61.1186 19.9431C61.0806 19.8924 61.0616 19.8354 61.0616 19.7721V14.5661C61.0616 14.5027 61.0299 14.4711 60.9666 14.4711H57.9266C57.8633 14.4711 57.8316 14.5027 57.8316 14.5661V19.7721C57.8316 19.8354 57.8063 19.8924 57.7556 19.9431C57.7176 19.9811 57.6669 20.0001 57.6036 20.0001H55.3806C55.3173 20.0001 55.2603 19.9811 55.2096 19.9431C55.1716 19.8924 55.1526 19.8354 55.1526 19.7721V6.92808C55.1526 6.86475 55.1716 6.81408 55.2096 6.77608C55.2603 6.72542 55.3173 6.70008 55.3806 6.70008H57.6036C57.6669 6.70008 57.7176 6.72542 57.7556 6.77608C57.8063 6.81408 57.8316 6.86475 57.8316 6.92808V12.0581C57.8316 12.1214 57.8633 12.1531 57.9266 12.1531H60.9666C61.0299 12.1531 61.0616 12.1214 61.0616 12.0581V6.92808Z" fill="white"/>
<path d="M73.9381 6.70008C74.0014 6.70008 74.0521 6.72542 74.0901 6.77608C74.1408 6.81408 74.1661 6.86475 74.1661 6.92808V8.79008C74.1661 8.85342 74.1408 8.91042 74.0901 8.96108C74.0521 8.99908 74.0014 9.01808 73.9381 9.01808H71.0501C70.9868 9.01808 70.9551 9.04975 70.9551 9.11308V19.7721C70.9551 19.8354 70.9298 19.8924 70.8791 19.9431C70.8411 19.9811 70.7904 20.0001 70.7271 20.0001H68.5041C68.4408 20.0001 68.3838 19.9811 68.3331 19.9431C68.2951 19.8924 68.2761 19.8354 68.2761 19.7721V9.11308C68.2761 9.04975 68.2444 9.01808 68.1811 9.01808H65.3881C65.3248 9.01808 65.2678 8.99908 65.2171 8.96108C65.1791 8.91042 65.1601 8.85342 65.1601 8.79008V6.92808C65.1601 6.86475 65.1791 6.81408 65.2171 6.77608C65.2678 6.72542 65.3248 6.70008 65.3881 6.70008H73.9381Z" fill="white"/>
<path d="M83.9391 6.70008C84.0024 6.70008 84.0531 6.72542 84.0911 6.77608C84.1417 6.81408 84.1671 6.86475 84.1671 6.92808V8.79008C84.1671 8.85342 84.1417 8.91042 84.0911 8.96108C84.0531 8.99908 84.0024 9.01808 83.9391 9.01808H81.0511C80.9877 9.01808 80.9561 9.04975 80.9561 9.11308V19.7721C80.9561 19.8354 80.9307 19.8924 80.8801 19.9431C80.8421 19.9811 80.7914 20.0001 80.7281 20.0001H78.5051C78.4417 20.0001 78.3847 19.9811 78.3341 19.9431C78.2961 19.8924 78.2771 19.8354 78.2771 19.7721V9.11308C78.2771 9.04975 78.2454 9.01808 78.1821 9.01808H75.3891C75.3257 9.01808 75.2687 8.99908 75.2181 8.96108C75.1801 8.91042 75.1611 8.85342 75.1611 8.79008V6.92808C75.1611 6.86475 75.1801 6.81408 75.2181 6.77608C75.2687 6.72542 75.3257 6.70008 75.3891 6.70008H83.9391Z" fill="white"/>
<path d="M93.94 6.70008C94.0034 6.70008 94.054 6.72542 94.092 6.77608C94.1427 6.81408 94.168 6.86475 94.168 6.92808V8.79008C94.168 8.85342 94.1427 8.91042 94.092 8.96108C94.054 8.99908 94.0034 9.01808 93.94 9.01808H91.052C90.9887 9.01808 90.9571 9.04975 90.9571 9.11308V19.7721C90.9571 19.8354 90.9317 19.8924 90.8811 19.9431C90.843 19.9811 90.7924 20.0001 90.729 20.0001H88.5061C88.4427 20.0001 88.3857 19.9811 88.335 19.9431C88.297 19.8924 88.278 19.8354 88.278 19.7721V9.11308C88.278 9.04975 88.2464 9.01808 88.183 9.01808H85.39C85.3267 9.01808 85.2697 8.99908 85.219 8.96108C85.181 8.91042 85.162 8.85342 85.162 8.79008V6.92808C85.162 6.86475 85.181 6.81408 85.219 6.77608C85.2697 6.72542 85.3267 6.70008 85.39 6.70008H93.94Z" fill="white"/>
<path d="M103.603 20.1521C102.741 20.1521 101.981 19.9811 101.323 19.6391C100.664 19.2971 100.151 18.8158 99.7837 18.1951C99.4291 17.5618 99.2517 16.8334 99.2517 16.0101V10.6711C99.2517 9.84775 99.4291 9.12575 99.7837 8.50508C100.151 7.88442 100.664 7.40308 101.323 7.06108C101.981 6.71908 102.741 6.54808 103.603 6.54808C104.451 6.54808 105.205 6.71908 105.864 7.06108C106.535 7.39042 107.048 7.85908 107.403 8.46708C107.77 9.06242 107.954 9.74008 107.954 10.5001V10.9181C107.954 10.9814 107.928 11.0384 107.878 11.0891C107.84 11.1271 107.789 11.1461 107.726 11.1461H105.503C105.439 11.1461 105.382 11.1271 105.332 11.0891C105.294 11.0384 105.275 10.9814 105.275 10.9181V10.5191C105.275 10.0377 105.123 9.63875 104.819 9.32208C104.515 9.00542 104.109 8.84708 103.603 8.84708C103.096 8.84708 102.684 9.01175 102.368 9.34108C102.064 9.67042 101.912 10.1011 101.912 10.6331V16.0671C101.912 16.5991 102.07 17.0297 102.387 17.3591C102.716 17.6884 103.14 17.8531 103.66 17.8531C104.154 17.8531 104.546 17.7074 104.838 17.4161C105.142 17.1247 105.294 16.7257 105.294 16.2191V15.0411C105.294 14.9777 105.262 14.9461 105.199 14.9461H103.717C103.653 14.9461 103.596 14.9271 103.546 14.8891C103.508 14.8384 103.489 14.7814 103.489 14.7181V12.9891C103.489 12.9257 103.508 12.8751 103.546 12.8371C103.596 12.7864 103.653 12.7611 103.717 12.7611H107.726C107.789 12.7611 107.84 12.7864 107.878 12.8371C107.928 12.8751 107.954 12.9257 107.954 12.9891V16.0101C107.954 17.2767 107.555 18.2837 106.757 19.0311C105.971 19.7784 104.92 20.1521 103.603 20.1521Z" fill="white"/>
<path d="M109.968 20.0001C109.905 20.0001 109.848 19.9811 109.797 19.9431C109.759 19.8924 109.74 19.8354 109.74 19.7721V6.92808C109.74 6.86475 109.759 6.81408 109.797 6.77608C109.848 6.72542 109.905 6.70008 109.968 6.70008H112.191C112.255 6.70008 112.305 6.72542 112.343 6.77608C112.394 6.81408 112.419 6.86475 112.419 6.92808V19.7721C112.419 19.8354 112.394 19.8924 112.343 19.9431C112.305 19.9811 112.255 20.0001 112.191 20.0001H109.968Z" fill="white"/>
<path d="M121.446 20.0001C121.307 20.0001 121.218 19.9368 121.18 19.8101L120.743 17.9481C120.731 17.8974 120.699 17.8721 120.648 17.8721H117.095C117.045 17.8721 117.013 17.8974 117 17.9481L116.563 19.8101C116.525 19.9368 116.443 20.0001 116.316 20.0001H114.017C113.853 20.0001 113.789 19.9177 113.827 19.7531L117.247 6.89008C117.285 6.76342 117.374 6.70008 117.513 6.70008H120.268C120.408 6.70008 120.496 6.76342 120.534 6.89008L123.954 19.7531L123.973 19.8291C123.973 19.9431 123.904 20.0001 123.764 20.0001H121.446ZM117.513 15.6871C117.501 15.7251 117.507 15.7567 117.532 15.7821C117.558 15.7947 117.583 15.8011 117.608 15.8011H120.116C120.142 15.8011 120.167 15.7947 120.192 15.7821C120.218 15.7567 120.224 15.7251 120.211 15.6871L118.9 10.1771C118.888 10.1264 118.869 10.1011 118.843 10.1011C118.818 10.1011 118.799 10.1264 118.786 10.1771L117.513 15.6871ZM118.615 5.84508C118.438 5.80708 118.387 5.71208 118.463 5.56008C118.552 5.34475 118.641 5.17375 118.729 5.04708C118.818 4.92042 118.938 4.77475 119.09 4.61008C119.217 4.47075 119.306 4.35042 119.356 4.24908C119.42 4.14775 119.451 4.01475 119.451 3.85008C119.451 3.72342 119.394 3.61575 119.28 3.52708C119.179 3.43842 119.059 3.39408 118.919 3.39408C118.742 3.39408 118.596 3.43208 118.482 3.50808C118.368 3.58408 118.223 3.73608 118.045 3.96408C117.995 4.04008 117.931 4.07808 117.855 4.07808C117.792 4.07808 117.741 4.05908 117.703 4.02108L117.057 3.54608C116.994 3.50808 116.962 3.45108 116.962 3.37508C116.962 3.32442 116.981 3.27375 117.019 3.22308C117.311 2.81775 117.596 2.53275 117.874 2.36808C118.166 2.19075 118.533 2.10208 118.976 2.10208C119.559 2.10208 120.015 2.26042 120.344 2.57708C120.686 2.88108 120.857 3.30542 120.857 3.85008C120.857 4.14142 120.794 4.38842 120.667 4.59108C120.553 4.79375 120.376 5.01542 120.135 5.25608C119.907 5.48408 119.743 5.68675 119.641 5.86408C119.565 5.97808 119.47 6.02242 119.356 5.99708L118.615 5.84508Z" fill="white"/>
<path d="M125.61 20.0001C125.547 20.0001 125.49 19.9811 125.439 19.9431C125.401 19.8924 125.382 19.8354 125.382 19.7721V6.92808C125.382 6.86475 125.401 6.81408 125.439 6.77608C125.49 6.72542 125.547 6.70008 125.61 6.70008H127.833C127.896 6.70008 127.947 6.72542 127.985 6.77608C128.036 6.81408 128.061 6.86475 128.061 6.92808V19.7721C128.061 19.8354 128.036 19.8924 127.985 19.9431C127.947 19.9811 127.896 20.0001 127.833 20.0001H125.61Z" fill="white"/>
<path d="M137.852 6.54808C138.7 6.54808 139.448 6.73175 140.094 7.09908C140.752 7.45375 141.259 7.96042 141.614 8.61908C141.981 9.26508 142.165 10.0187 142.165 10.8801V15.9151C142.165 16.9284 141.905 17.7961 141.386 18.5181C140.879 19.2274 140.176 19.7088 139.277 19.9621C139.226 19.9748 139.201 20.0064 139.201 20.0571V21.6341C139.201 21.6974 139.175 21.7481 139.125 21.7861C139.087 21.8367 139.036 21.8621 138.973 21.8621H136.75C136.686 21.8621 136.629 21.8367 136.579 21.7861C136.541 21.7481 136.522 21.6974 136.522 21.6341V20.0571C136.522 20.0064 136.496 19.9748 136.446 19.9621C135.559 19.7088 134.856 19.2274 134.337 18.5181C133.83 17.7961 133.577 16.9284 133.577 15.9151V10.8801C133.577 10.0187 133.754 9.26508 134.109 8.61908C134.463 7.96042 134.964 7.45375 135.61 7.09908C136.256 6.73175 137.003 6.54808 137.852 6.54808ZM139.486 10.6711C139.486 10.1264 139.334 9.68942 139.03 9.36008C138.738 9.01808 138.346 8.84708 137.852 8.84708C137.383 8.84708 136.997 9.01808 136.693 9.36008C136.401 9.68942 136.256 10.1264 136.256 10.6711V16.0291C136.256 16.5737 136.401 17.0171 136.693 17.3591C136.997 17.6884 137.383 17.8531 137.852 17.8531C138.346 17.8531 138.738 17.6884 139.03 17.3591C139.334 17.0171 139.486 16.5737 139.486 16.0291V10.6711Z" fill="white"/>
<path d="M148.137 20.1521C147.276 20.1521 146.516 19.9747 145.857 19.6201C145.198 19.2654 144.685 18.7714 144.318 18.1381C143.963 17.4921 143.786 16.7511 143.786 15.9151V6.92808C143.786 6.86475 143.805 6.81408 143.843 6.77608C143.894 6.72542 143.951 6.70008 144.014 6.70008H146.237C146.3 6.70008 146.351 6.72542 146.389 6.77608C146.44 6.81408 146.465 6.86475 146.465 6.92808V16.0481C146.465 16.5927 146.617 17.0297 146.921 17.3591C147.225 17.6884 147.63 17.8531 148.137 17.8531C148.644 17.8531 149.049 17.6884 149.353 17.3591C149.657 17.0297 149.809 16.5927 149.809 16.0481V6.92808C149.809 6.86475 149.828 6.81408 149.866 6.77608C149.917 6.72542 149.974 6.70008 150.037 6.70008H152.26C152.323 6.70008 152.374 6.72542 152.412 6.77608C152.463 6.81408 152.488 6.86475 152.488 6.92808V15.9151C152.488 16.7511 152.304 17.4921 151.937 18.1381C151.582 18.7714 151.076 19.2654 150.417 19.6201C149.758 19.9747 148.998 20.1521 148.137 20.1521Z" fill="white"/>
<path d="M157.461 19.9811C157.397 19.9811 157.34 19.9621 157.29 19.9241C157.252 19.8734 157.233 19.8164 157.233 19.7531V14.8891L157.214 14.7751L153.927 6.96608C153.914 6.94075 153.908 6.90275 153.908 6.85208C153.908 6.75075 153.971 6.70008 154.098 6.70008H156.492C156.631 6.70008 156.72 6.76342 156.758 6.89008L158.525 11.6971C158.537 11.7351 158.556 11.7541 158.582 11.7541C158.607 11.7541 158.626 11.7351 158.639 11.6971L160.406 6.89008C160.444 6.76342 160.532 6.70008 160.672 6.70008H163.066C163.154 6.70008 163.211 6.72542 163.237 6.77608C163.262 6.82675 163.262 6.89008 163.237 6.96608L159.931 14.7751L159.912 14.8891V19.7531C159.912 19.8164 159.886 19.8734 159.836 19.9241C159.798 19.9621 159.747 19.9811 159.684 19.9811H157.461Z" fill="white"/>
<path d="M172.738 8.77108C172.738 8.83442 172.712 8.89142 172.662 8.94208C172.624 8.98008 172.573 8.99908 172.51 8.99908H167.418C167.354 8.99908 167.323 9.03075 167.323 9.09408V12.0581C167.323 12.1214 167.354 12.1531 167.418 12.1531H170.591C170.654 12.1531 170.705 12.1784 170.743 12.2291C170.793 12.2671 170.819 12.3177 170.819 12.3811V14.2241C170.819 14.2874 170.793 14.3444 170.743 14.3951C170.705 14.4331 170.654 14.4521 170.591 14.4521H167.418C167.354 14.4521 167.323 14.4837 167.323 14.5471V17.6061C167.323 17.6694 167.354 17.7011 167.418 17.7011H172.51C172.573 17.7011 172.624 17.7264 172.662 17.7771C172.712 17.8151 172.738 17.8657 172.738 17.9291V19.7721C172.738 19.8354 172.712 19.8924 172.662 19.9431C172.624 19.9811 172.573 20.0001 172.51 20.0001H164.872C164.808 20.0001 164.751 19.9811 164.701 19.9431C164.663 19.8924 164.644 19.8354 164.644 19.7721V6.92808C164.644 6.86475 164.663 6.81408 164.701 6.77608C164.751 6.72542 164.808 6.70008 164.872 6.70008H172.51C172.573 6.70008 172.624 6.72542 172.662 6.77608C172.712 6.81408 172.738 6.86475 172.738 6.92808V8.77108ZM165.955 5.57908C165.866 5.57908 165.803 5.55375 165.765 5.50308C165.739 5.43975 165.752 5.37008 165.803 5.29408L167.114 3.31808C167.177 3.21675 167.266 3.16608 167.38 3.16608H169.869C169.983 3.16608 170.071 3.21675 170.135 3.31808L171.465 5.29408C171.49 5.34475 171.503 5.38908 171.503 5.42708C171.503 5.52842 171.439 5.57908 171.313 5.57908H169.66C169.52 5.57908 169.425 5.52842 169.375 5.42708L168.71 4.30608C168.672 4.23008 168.634 4.23008 168.596 4.30608L167.931 5.42708C167.88 5.52842 167.785 5.57908 167.646 5.57908H165.955ZM171.541 4.04008C171.452 4.04008 171.395 4.01475 171.37 3.96408C171.344 3.91342 171.351 3.85008 171.389 3.77408L172.472 1.83608C172.535 1.73475 172.63 1.68408 172.757 1.68408H174.581C174.682 1.68408 174.745 1.71575 174.771 1.77908C174.796 1.82975 174.783 1.89308 174.733 1.96908L173.327 3.90708C173.263 3.99575 173.175 4.04008 173.061 4.04008H171.541Z" fill="white"/>
<path d="M182.613 6.70008C182.676 6.70008 182.727 6.72542 182.765 6.77608C182.816 6.81408 182.841 6.86475 182.841 6.92808V8.79008C182.841 8.85342 182.816 8.91042 182.765 8.96108C182.727 8.99908 182.676 9.01808 182.613 9.01808H179.725C179.662 9.01808 179.63 9.04975 179.63 9.11308V19.7721C179.63 19.8354 179.605 19.8924 179.554 19.9431C179.516 19.9811 179.465 20.0001 179.402 20.0001H177.179C177.116 20.0001 177.059 19.9811 177.008 19.9431C176.97 19.8924 176.951 19.8354 176.951 19.7721V9.11308C176.951 9.04975 176.919 9.01808 176.856 9.01808H174.063C174 9.01808 173.943 8.99908 173.892 8.96108C173.854 8.91042 173.835 8.85342 173.835 8.79008V6.92808C173.835 6.86475 173.854 6.81408 173.892 6.77608C173.943 6.72542 174 6.70008 174.063 6.70008H182.613Z" fill="white"/>
<path d="M196.418 6.70008C196.481 6.70008 196.532 6.72542 196.57 6.77608C196.62 6.81408 196.646 6.86475 196.646 6.92808V8.79008C196.646 8.85342 196.62 8.91042 196.57 8.96108C196.532 8.99908 196.481 9.01808 196.418 9.01808H193.53C193.466 9.01808 193.435 9.04975 193.435 9.11308V19.7721C193.435 19.8354 193.409 19.8924 193.359 19.9431C193.321 19.9811 193.27 20.0001 193.207 20.0001H190.984C190.92 20.0001 190.863 19.9811 190.813 19.9431C190.775 19.8924 190.756 19.8354 190.756 19.7721V9.11308C190.756 9.04975 190.724 9.01808 190.661 9.01808H187.868C187.804 9.01808 187.747 8.99908 187.697 8.96108C187.659 8.91042 187.64 8.85342 187.64 8.79008V6.92808C187.64 6.86475 187.659 6.81408 187.697 6.77608C187.747 6.72542 187.804 6.70008 187.868 6.70008H196.418Z" fill="white"/>
<path d="M206.419 6.70008C206.482 6.70008 206.533 6.72542 206.571 6.77608C206.621 6.81408 206.647 6.86475 206.647 6.92808V8.79008C206.647 8.85342 206.621 8.91042 206.571 8.96108C206.533 8.99908 206.482 9.01808 206.419 9.01808H203.531C203.467 9.01808 203.436 9.04975 203.436 9.11308V19.7721C203.436 19.8354 203.41 19.8924 203.36 19.9431C203.322 19.9811 203.271 20.0001 203.208 20.0001H200.985C200.921 20.0001 200.864 19.9811 200.814 19.9431C200.776 19.8924 200.757 19.8354 200.757 19.7721V9.11308C200.757 9.04975 200.725 9.01808 200.662 9.01808H197.869C197.805 9.01808 197.748 8.99908 197.698 8.96108C197.66 8.91042 197.641 8.85342 197.641 8.79008V6.92808C197.641 6.86475 197.66 6.81408 197.698 6.77608C197.748 6.72542 197.805 6.70008 197.869 6.70008H206.419Z" fill="white"/>
<path d="M214.064 6.92808C214.064 6.86475 214.083 6.81408 214.121 6.77608C214.171 6.72542 214.228 6.70008 214.292 6.70008H216.515C216.578 6.70008 216.629 6.72542 216.667 6.77608C216.717 6.81408 216.743 6.86475 216.743 6.92808V19.7721C216.743 19.8354 216.717 19.8924 216.667 19.9431C216.629 19.9811 216.578 20.0001 216.515 20.0001H214.292C214.228 20.0001 214.171 19.9811 214.121 19.9431C214.083 19.8924 214.064 19.8354 214.064 19.7721V14.5661C214.064 14.5027 214.032 14.4711 213.969 14.4711H210.929C210.865 14.4711 210.834 14.5027 210.834 14.5661V19.7721C210.834 19.8354 210.808 19.8924 210.758 19.9431C210.72 19.9811 210.669 20.0001 210.606 20.0001H208.383C208.319 20.0001 208.262 19.9811 208.212 19.9431C208.174 19.8924 208.155 19.8354 208.155 19.7721V6.92808C208.155 6.86475 208.174 6.81408 208.212 6.77608C208.262 6.72542 208.319 6.70008 208.383 6.70008H210.606C210.669 6.70008 210.72 6.72542 210.758 6.77608C210.808 6.81408 210.834 6.86475 210.834 6.92808V12.0581C210.834 12.1214 210.865 12.1531 210.929 12.1531H213.969C214.032 12.1531 214.064 12.1214 214.064 12.0581V6.92808Z" fill="white"/>
<path d="M222.798 20.1521C221.937 20.1521 221.177 19.9811 220.518 19.6391C219.859 19.2971 219.346 18.8094 218.979 18.1761C218.624 17.5427 218.447 16.8081 218.447 15.9721V10.6901C218.447 9.86675 218.624 9.14475 218.979 8.52408C219.346 7.89075 219.859 7.40308 220.518 7.06108C221.177 6.71908 221.937 6.54808 222.798 6.54808C223.659 6.54808 224.419 6.71908 225.078 7.06108C225.737 7.39042 226.243 7.85908 226.598 8.46708C226.965 9.07508 227.149 9.78442 227.149 10.5951V10.6901C227.149 10.7534 227.124 10.8104 227.073 10.8611C227.035 10.9117 226.984 10.9371 226.921 10.9371L224.698 11.0321C224.546 11.0321 224.47 10.9624 224.47 10.8231V10.5761C224.47 10.0567 224.318 9.63875 224.014 9.32208C223.71 9.00542 223.305 8.84708 222.798 8.84708C222.291 8.84708 221.886 9.00542 221.582 9.32208C221.278 9.63875 221.126 10.0567 221.126 10.5761V16.1431C221.126 16.6624 221.278 17.0804 221.582 17.3971C221.886 17.7011 222.291 17.8531 222.798 17.8531C223.305 17.8531 223.71 17.7011 224.014 17.3971C224.318 17.0804 224.47 16.6624 224.47 16.1431V15.8961C224.47 15.7567 224.546 15.6871 224.698 15.6871L226.921 15.7821C226.984 15.7821 227.035 15.8074 227.073 15.8581C227.124 15.8961 227.149 15.9467 227.149 16.0101V16.0671C227.149 16.8777 226.965 17.5934 226.598 18.2141C226.243 18.8347 225.737 19.3161 225.078 19.6581C224.419 19.9874 223.659 20.1521 222.798 20.1521Z" fill="white"/>
<path d="M86.4383 29.4001C86.4983 29.4001 86.5463 29.4241 86.5823 29.4721C86.6303 29.5081 86.6543 29.5561 86.6543 29.6161V31.7581C86.6543 31.8181 86.6303 31.8721 86.5823 31.9201C86.5463 31.9561 86.4983 31.9741 86.4383 31.9741H83.7383C83.6783 31.9741 83.6483 32.0041 83.6483 32.0641V41.7841C83.6483 41.8441 83.6243 41.8981 83.5763 41.9461C83.5403 41.9821 83.4923 42.0001 83.4323 42.0001H80.8763C80.8163 42.0001 80.7623 41.9821 80.7143 41.9461C80.6783 41.8981 80.6603 41.8441 80.6603 41.7841V32.0641C80.6603 32.0041 80.6303 31.9741 80.5703 31.9741H77.9783C77.9183 31.9741 77.8643 31.9561 77.8163 31.9201C77.7803 31.8721 77.7623 31.8181 77.7623 31.7581V29.6161C77.7623 29.5561 77.7803 29.5081 77.8163 29.4721C77.8643 29.4241 77.9183 29.4001 77.9783 29.4001H86.4383Z" fill="#F9E062"/>
<path d="M88.0063 42.0001C87.9463 42.0001 87.8923 41.9821 87.8443 41.9461C87.8083 41.8981 87.7903 41.8441 87.7903 41.7841V29.6161C87.7903 29.5561 87.8083 29.5081 87.8443 29.4721C87.8923 29.4241 87.9463 29.4001 88.0063 29.4001H90.5623C90.6223 29.4001 90.6703 29.4241 90.7063 29.4721C90.7543 29.5081 90.7783 29.5561 90.7783 29.6161V41.7841C90.7783 41.8441 90.7543 41.8981 90.7063 41.9461C90.6703 41.9821 90.6223 42.0001 90.5623 42.0001H88.0063ZM88.9963 28.6081C88.9243 28.5961 88.8703 28.5661 88.8343 28.5181C88.8103 28.4701 88.8163 28.4101 88.8523 28.3381C88.9723 28.0021 89.1643 27.6901 89.4283 27.4021C89.5363 27.2821 89.6143 27.1801 89.6623 27.0961C89.7103 27.0001 89.7343 26.8741 89.7343 26.7181C89.7343 26.6221 89.6923 26.5381 89.6083 26.4661C89.5243 26.3941 89.4223 26.3581 89.3023 26.3581C89.1703 26.3581 89.0503 26.3941 88.9423 26.4661C88.8343 26.5381 88.6963 26.6761 88.5283 26.8801C88.4683 26.9401 88.4143 26.9701 88.3663 26.9701C88.3183 26.9701 88.2703 26.9521 88.2223 26.9161L87.4843 26.3761C87.3763 26.2801 87.3583 26.1781 87.4303 26.0701C87.7063 25.6741 87.9883 25.3921 88.2763 25.2241C88.5763 25.0561 88.9483 24.9721 89.3923 24.9721C89.9683 24.9721 90.4243 25.1281 90.7603 25.4401C91.0963 25.7401 91.2643 26.1661 91.2643 26.7181C91.2643 27.0061 91.2043 27.2461 91.0843 27.4381C90.9763 27.6181 90.8083 27.8281 90.5803 28.0681C90.3283 28.3441 90.1723 28.5361 90.1123 28.6441C90.0403 28.7401 89.9503 28.7821 89.8423 28.7701L88.9963 28.6081Z" fill="#F9E062"/>
<path d="M98.4463 29.6161C98.4463 29.5561 98.4643 29.5081 98.5003 29.4721C98.5483 29.4241 98.6023 29.4001 98.6623 29.4001H101.218C101.278 29.4001 101.326 29.4241 101.362 29.4721C101.41 29.5081 101.434 29.5561 101.434 29.6161V41.7841C101.434 41.8441 101.41 41.8981 101.362 41.9461C101.326 41.9821 101.278 42.0001 101.218 42.0001H98.5543C98.4343 42.0001 98.3503 41.9461 98.3023 41.8381L95.3323 35.1781C95.3083 35.1421 95.2843 35.1301 95.2603 35.1421C95.2363 35.1421 95.2243 35.1661 95.2243 35.2141L95.2603 41.7841C95.2603 41.8441 95.2363 41.8981 95.1883 41.9461C95.1523 41.9821 95.1043 42.0001 95.0443 42.0001H92.5063C92.4463 42.0001 92.3923 41.9821 92.3443 41.9461C92.3083 41.8981 92.2903 41.8441 92.2903 41.7841V29.6161C92.2903 29.5561 92.3083 29.5081 92.3443 29.4721C92.3923 29.4241 92.4463 29.4001 92.5063 29.4001H95.1523C95.2723 29.4001 95.3563 29.4541 95.4043 29.5621L98.3563 36.1861C98.3803 36.2221 98.4043 36.2401 98.4283 36.2401C98.4523 36.2401 98.4643 36.2161 98.4643 36.1681L98.4463 29.6161Z" fill="#F9E062"/>
<path d="M108.433 29.6161C108.433 29.5561 108.451 29.5081 108.487 29.4721C108.535 29.4241 108.589 29.4001 108.649 29.4001H111.205C111.265 29.4001 111.313 29.4241 111.349 29.4721C111.397 29.5081 111.421 29.5561 111.421 29.6161V41.7841C111.421 41.8441 111.397 41.8981 111.349 41.9461C111.313 41.9821 111.265 42.0001 111.205 42.0001H108.649C108.589 42.0001 108.535 41.9821 108.487 41.9461C108.451 41.8981 108.433 41.8441 108.433 41.7841V37.0321C108.433 36.9721 108.403 36.9421 108.343 36.9421H106.021C105.961 36.9421 105.931 36.9721 105.931 37.0321V41.7841C105.931 41.8441 105.907 41.8981 105.859 41.9461C105.823 41.9821 105.775 42.0001 105.715 42.0001H103.159C103.099 42.0001 103.045 41.9821 102.997 41.9461C102.961 41.8981 102.943 41.8441 102.943 41.7841V29.6161C102.943 29.5561 102.961 29.5081 102.997 29.4721C103.045 29.4241 103.099 29.4001 103.159 29.4001H105.715C105.775 29.4001 105.823 29.4241 105.859 29.4721C105.907 29.5081 105.931 29.5561 105.931 29.6161V34.2961C105.931 34.3561 105.961 34.3861 106.021 34.3861H108.343C108.403 34.3861 108.433 34.3561 108.433 34.2961V29.6161Z" fill="#F9E062"/>
<path d="M122.616 29.6161C122.616 29.5561 122.634 29.5081 122.67 29.4721C122.718 29.4241 122.772 29.4001 122.832 29.4001H125.388C125.448 29.4001 125.496 29.4241 125.532 29.4721C125.58 29.5081 125.604 29.5561 125.604 29.6161V41.7841C125.604 41.8441 125.58 41.8981 125.532 41.9461C125.496 41.9821 125.448 42.0001 125.388 42.0001H122.724C122.604 42.0001 122.52 41.9461 122.472 41.8381L119.502 35.1781C119.478 35.1421 119.454 35.1301 119.43 35.1421C119.406 35.1421 119.394 35.1661 119.394 35.2141L119.43 41.7841C119.43 41.8441 119.406 41.8981 119.358 41.9461C119.322 41.9821 119.274 42.0001 119.214 42.0001H116.676C116.616 42.0001 116.562 41.9821 116.514 41.9461C116.478 41.8981 116.46 41.8441 116.46 41.7841V29.6161C116.46 29.5561 116.478 29.5081 116.514 29.4721C116.562 29.4241 116.616 29.4001 116.676 29.4001H119.322C119.442 29.4001 119.526 29.4541 119.574 29.5621L122.526 36.1861C122.55 36.2221 122.574 36.2401 122.598 36.2401C122.622 36.2401 122.634 36.2161 122.634 36.1681L122.616 29.6161Z" fill="#F9E062"/>
<path d="M127.329 42.0001C127.269 42.0001 127.215 41.9821 127.167 41.9461C127.131 41.8981 127.113 41.8441 127.113 41.7841V29.6161C127.113 29.5561 127.131 29.5081 127.167 29.4721C127.215 29.4241 127.269 29.4001 127.329 29.4001H129.885C129.945 29.4001 129.993 29.4241 130.029 29.4721C130.077 29.5081 130.101 29.5561 130.101 29.6161V41.7841C130.101 41.8441 130.077 41.8981 130.029 41.9461C129.993 41.9821 129.945 42.0001 129.885 42.0001H127.329Z" fill="#F9E062"/>
<path d="M137.769 29.6161C137.769 29.5561 137.787 29.5081 137.823 29.4721C137.871 29.4241 137.925 29.4001 137.985 29.4001H140.541C140.601 29.4001 140.649 29.4241 140.685 29.4721C140.733 29.5081 140.757 29.5561 140.757 29.6161V41.7841C140.757 41.8441 140.733 41.8981 140.685 41.9461C140.649 41.9821 140.601 42.0001 140.541 42.0001H137.877C137.757 42.0001 137.673 41.9461 137.625 41.8381L134.655 35.1781C134.631 35.1421 134.607 35.1301 134.583 35.1421C134.559 35.1421 134.547 35.1661 134.547 35.2141L134.583 41.7841C134.583 41.8441 134.559 41.8981 134.511 41.9461C134.475 41.9821 134.427 42.0001 134.367 42.0001H131.829C131.769 42.0001 131.715 41.9821 131.667 41.9461C131.631 41.8981 131.613 41.8441 131.613 41.7841V29.6161C131.613 29.5561 131.631 29.5081 131.667 29.4721C131.715 29.4241 131.769 29.4001 131.829 29.4001H134.475C134.595 29.4001 134.679 29.4541 134.727 29.5621L137.679 36.1861C137.703 36.2221 137.727 36.2401 137.751 36.2401C137.775 36.2401 137.787 36.2161 137.787 36.1681L137.769 29.6161Z" fill="#F9E062"/>
<path d="M147.755 29.6161C147.755 29.5561 147.773 29.5081 147.809 29.4721C147.857 29.4241 147.911 29.4001 147.971 29.4001H150.527C150.587 29.4001 150.635 29.4241 150.671 29.4721C150.719 29.5081 150.743 29.5561 150.743 29.6161V41.7841C150.743 41.8441 150.719 41.8981 150.671 41.9461C150.635 41.9821 150.587 42.0001 150.527 42.0001H147.971C147.911 42.0001 147.857 41.9821 147.809 41.9461C147.773 41.8981 147.755 41.8441 147.755 41.7841V37.0321C147.755 36.9721 147.725 36.9421 147.665 36.9421H145.343C145.283 36.9421 145.253 36.9721 145.253 37.0321V41.7841C145.253 41.8441 145.229 41.8981 145.181 41.9461C145.145 41.9821 145.097 42.0001 145.037 42.0001H142.481C142.421 42.0001 142.367 41.9821 142.319 41.9461C142.283 41.8981 142.265 41.8441 142.265 41.7841V29.6161C142.265 29.5561 142.283 29.5081 142.319 29.4721C142.367 29.4241 142.421 29.4001 142.481 29.4001H145.037C145.097 29.4001 145.145 29.4241 145.181 29.4721C145.229 29.5081 145.253 29.5561 145.253 29.6161V34.2961C145.253 34.3561 145.283 34.3861 145.343 34.3861H147.665C147.725 34.3861 147.755 34.3561 147.755 34.2961V29.6161Z" fill="#F9E062"/>
<path d="M164.098 29.4001C164.158 29.4001 164.206 29.4241 164.242 29.4721C164.29 29.5081 164.314 29.5561 164.314 29.6161V31.7581C164.314 31.8181 164.29 31.8721 164.242 31.9201C164.206 31.9561 164.158 31.9741 164.098 31.9741H161.398C161.338 31.9741 161.308 32.0041 161.308 32.0641V41.7841C161.308 41.8441 161.284 41.8981 161.236 41.9461C161.2 41.9821 161.152 42.0001 161.092 42.0001H158.536C158.476 42.0001 158.422 41.9821 158.374 41.9461C158.338 41.8981 158.32 41.8441 158.32 41.7841V32.0641C158.32 32.0041 158.29 31.9741 158.23 31.9741H155.638C155.578 31.9741 155.524 31.9561 155.476 31.9201C155.44 31.8721 155.422 31.8181 155.422 31.7581V29.6161C155.422 29.5561 155.44 29.5081 155.476 29.4721C155.524 29.4241 155.578 29.4001 155.638 29.4001H164.098Z" fill="#F9E062"/>
<path d="M170.94 29.6161C170.94 29.5561 170.958 29.5081 170.994 29.4721C171.042 29.4241 171.096 29.4001 171.156 29.4001H173.712C173.772 29.4001 173.82 29.4241 173.856 29.4721C173.904 29.5081 173.928 29.5561 173.928 29.6161V41.7841C173.928 41.8441 173.904 41.8981 173.856 41.9461C173.82 41.9821 173.772 42.0001 173.712 42.0001H171.156C171.096 42.0001 171.042 41.9821 170.994 41.9461C170.958 41.8981 170.94 41.8441 170.94 41.7841V37.0321C170.94 36.9721 170.91 36.9421 170.85 36.9421H168.528C168.468 36.9421 168.438 36.9721 168.438 37.0321V41.7841C168.438 41.8441 168.414 41.8981 168.366 41.9461C168.33 41.9821 168.282 42.0001 168.222 42.0001H165.666C165.606 42.0001 165.552 41.9821 165.504 41.9461C165.468 41.8981 165.45 41.8441 165.45 41.7841V29.6161C165.45 29.5561 165.468 29.5081 165.504 29.4721C165.552 29.4241 165.606 29.4001 165.666 29.4001H168.222C168.282 29.4001 168.33 29.4241 168.366 29.4721C168.414 29.5081 168.438 29.5561 168.438 29.6161V34.2961C168.438 34.3561 168.468 34.3861 168.528 34.3861H170.85C170.91 34.3861 170.94 34.3561 170.94 34.2961V29.6161Z" fill="#F9E062"/>
<path d="M179.576 42.1441C178.724 42.1441 177.974 41.9761 177.326 41.6401C176.678 41.2921 176.174 40.8061 175.814 40.1821C175.466 39.5581 175.292 38.8381 175.292 38.0221V29.6161C175.292 29.5561 175.31 29.5081 175.346 29.4721C175.394 29.4241 175.448 29.4001 175.508 29.4001H178.064C178.124 29.4001 178.172 29.4241 178.208 29.4721C178.256 29.5081 178.28 29.5561 178.28 29.6161V38.1661C178.28 38.5861 178.4 38.9281 178.64 39.1921C178.88 39.4561 179.192 39.5881 179.576 39.5881C179.96 39.5881 180.266 39.4561 180.494 39.1921C180.734 38.9281 180.854 38.5861 180.854 38.1661V29.6161C180.854 29.5561 180.872 29.5081 180.908 29.4721C180.956 29.4241 181.01 29.4001 181.07 29.4001H183.626C183.686 29.4001 183.734 29.4241 183.77 29.4721C183.818 29.5081 183.842 29.5561 183.842 29.6161V38.0221C183.842 38.8381 183.662 39.5581 183.302 40.1821C182.954 40.8061 182.456 41.2921 181.808 41.6401C181.172 41.9761 180.428 42.1441 179.576 42.1441Z" fill="#F9E062"/>
<path d="M191.767 42.0001C191.635 42.0001 191.557 41.9341 191.533 41.8021L191.173 40.2181C191.161 40.1701 191.131 40.1461 191.083 40.1461H188.041C187.993 40.1461 187.963 40.1701 187.951 40.2181L187.591 41.8021C187.567 41.9341 187.489 42.0001 187.357 42.0001H184.711C184.555 42.0001 184.495 41.9221 184.531 41.7661L187.753 29.5801C187.789 29.4601 187.873 29.4001 188.005 29.4001H191.155C191.287 29.4001 191.371 29.4601 191.407 29.5801L194.629 41.7661L194.647 41.8381C194.647 41.9461 194.581 42.0001 194.449 42.0001H191.767ZM188.491 37.7521C188.479 37.8121 188.509 37.8421 188.581 37.8421H190.507C190.531 37.8421 190.555 37.8361 190.579 37.8241C190.603 37.8001 190.609 37.7701 190.597 37.7341L189.589 33.2701C189.577 33.2221 189.559 33.1981 189.535 33.1981C189.511 33.1981 189.493 33.2221 189.481 33.2701L188.491 37.7521ZM189.589 46.3741C189.145 46.3741 188.779 46.2301 188.491 45.9421C188.215 45.6661 188.077 45.3121 188.077 44.8801C188.077 44.4361 188.215 44.0701 188.491 43.7821C188.779 43.5061 189.145 43.3681 189.589 43.3681C190.021 43.3681 190.375 43.5061 190.651 43.7821C190.939 44.0701 191.083 44.4361 191.083 44.8801C191.083 45.3121 190.939 45.6661 190.651 45.9421C190.375 46.2301 190.021 46.3741 189.589 46.3741ZM186.781 28.4101C186.697 28.4101 186.637 28.3921 186.601 28.3561C186.577 28.3081 186.589 28.2421 186.637 28.1581L187.861 26.2501C187.921 26.1541 188.005 26.1061 188.113 26.1061H190.939C191.047 26.1061 191.131 26.1541 191.191 26.2501L192.451 28.1401C192.475 28.1761 192.487 28.2181 192.487 28.2661C192.487 28.3621 192.433 28.4101 192.325 28.4101H190.399C190.279 28.4101 190.189 28.3621 190.129 28.2661L189.607 27.3121C189.571 27.2521 189.535 27.2521 189.499 27.3121L188.977 28.2661C188.917 28.3621 188.827 28.4101 188.707 28.4101H186.781Z" fill="#F9E062"/>
<path d="M201.894 29.6161C201.894 29.5561 201.912 29.5081 201.948 29.4721C201.996 29.4241 202.05 29.4001 202.11 29.4001H204.666C204.726 29.4001 204.774 29.4241 204.81 29.4721C204.858 29.5081 204.882 29.5561 204.882 29.6161V41.7841C204.882 41.8441 204.858 41.8981 204.81 41.9461C204.774 41.9821 204.726 42.0001 204.666 42.0001H202.002C201.882 42.0001 201.798 41.9461 201.75 41.8381L198.78 35.1781C198.756 35.1421 198.732 35.1301 198.708 35.1421C198.684 35.1421 198.672 35.1661 198.672 35.2141L198.708 41.7841C198.708 41.8441 198.684 41.8981 198.636 41.9461C198.6 41.9821 198.552 42.0001 198.492 42.0001H195.954C195.894 42.0001 195.84 41.9821 195.792 41.9461C195.756 41.8981 195.738 41.8441 195.738 41.7841V29.6161C195.738 29.5561 195.756 29.5081 195.792 29.4721C195.84 29.4241 195.894 29.4001 195.954 29.4001H198.6C198.72 29.4001 198.804 29.4541 198.852 29.5621L201.804 36.1861C201.828 36.2221 201.852 36.2401 201.876 36.2401C201.9 36.2401 201.912 36.2161 201.912 36.1681L201.894 29.6161Z" fill="#F9E062"/>
</svg>
